# xmcd
#
# Track frame offsets: 
#        150
#        18161
#        34216
#        47321
#        61967
#        76475
#        92936
#        108685
#        121399
#        134682
#
# Disc length: 1972 seconds
#
# Revision: 0
# Processed by: cddbd v1.5.2PL0 Copyright (c) Steve Scherf et al.
# Submitted via: ExactAudioCopy v0.99pb5
#
DISCID=8407b20a
DTITLE=Steve Forde - Hurricane
DYEAR=2010
DGENRE=Country
TTITLE0=Hurricane
TTITLE1=Endless Summer
TTITLE2=How Long
TTITLE3=Wasted
TTITLE4=Never Growin' Old
TTITLE5=Something Beautiful
TTITLE6=Want Me Back
TTITLE7=Perfect World
TTITLE8=Drive
TTITLE9=Revenge
EXTD=
EXTT0=
EXTT1=
EXTT2=
EXTT3=
EXTT4=
EXTT5=
EXTT6=
EXTT7=
EXTT8=
EXTT9=
PLAYORDER=
